<svg xmlns="http://www.w3.org/2000/svg" viewBox="0 0 1920 1080">
  <defs>
    <style>
    @import url("https://use.typekit.net/mvj1dyj.css");

      .cls-1 {
        fill: #212121;
      }

      .cls-16, .cls-2, .cls-3 {
        fill: #fff;
      }

      .cls-13, .cls-3 {
        font-size: 48px;
      }

      .cls-18, .cls-3 {
        font-family: MyriadPro-Regular, Myriad Pro;
      }

      .cls-4 {
        letter-spacing: -0.03em;
      }

      .cls-5 {
        letter-spacing: 0em;
      }

      .cls-6 {
        letter-spacing: 0em;
      }

      .cls-7 {
        letter-spacing: -0.04em;
      }

      .cls-8 {
        letter-spacing: -0.01em;
      }

      .cls-9 {
        letter-spacing: 0em;
      }

      .cls-10 {
        letter-spacing: -0.01em;
      }

      .cls-11 {
        letter-spacing: -0.01em;
      }

      .cls-12, .cls-13, .cls-18 {
        fill: #f8cf39;
      }

      .cls-12, .cls-18 {
        stroke: #febc11;
        stroke-miterlimit: 10;
      }

      .cls-13, .cls-14, .cls-16 {
        font-family: agency-fb, sans-serif;
      }

      .cls-14 {
        font-size: 160px;
      }

      .cls-14, .cls-17 {
        fill: #0093dd;
      }

      .cls-15 {
        font-size: 72px;
      }

      .cls-16 {
        font-size: 106.49px;
      }

      .cls-17 {
        font-size: 120px;
      }

      .cls-18 {
        font-size: 176px;
      }

      .cls-19 {
        fill: #dcddde;
      }
    </style>
  </defs>
  <title>11_Gen_screen</title>
  <g id="Layer_2" data-name="Layer 2">
    <g id="star_trek_infographic">
      <g id="_11_Gen_screen" data-name="11_Gen_screen">
        <g id="starfield_copy_8" data-name="starfield copy 8">
          <rect id="space" class="cls-1" width="1920" height="1080"/>
          <g id="stars">
            <circle id="s47" class="cls-2" cx="528.5" cy="364.5" r="1"/>
            <circle id="s46" class="cls-2" cx="1695.5" cy="781.5" r="1"/>
            <circle id="s45" class="cls-2" cx="659.5" cy="333.5" r="1"/>
            <circle id="s44" class="cls-2" cx="1623.5" cy="170.5" r="1"/>
            <circle id="s43" class="cls-2" cx="1326.5" cy="387.5" r="1"/>
            <circle id="s42" class="cls-2" cx="1269.5" cy="559.5" r="1"/>
            <circle id="s41" class="cls-2" cx="1731.5" cy="962.5" r="1"/>
            <circle id="s40" class="cls-2" cx="1765.5" cy="151.5" r="1"/>
            <circle id="s39" class="cls-2" cx="1370.5" cy="81.5" r="1"/>
            <circle id="s38" class="cls-2" cx="1537.5" cy="260.5" r="1"/>
            <circle id="s37" class="cls-2" cx="1511.5" cy="540.5" r="1"/>
            <circle id="s36" class="cls-2" cx="1715.5" cy="80.5" r="1"/>
            <circle id="s35" class="cls-2" cx="567.5" cy="974.5" r="1"/>
            <circle id="s34" class="cls-2" cx="692.5" cy="171.5" r="1"/>
            <circle id="s33" class="cls-2" cx="585.5" cy="114.5" r="1"/>
            <circle id="s32" class="cls-2" cx="611.5" cy="194.5" r="1"/>
            <circle id="s31" class="cls-2" cx="448.5" cy="731.5" r="1"/>
            <circle id="s30" class="cls-2" cx="961.5" cy="782.5" r="1"/>
            <circle id="s29" class="cls-2" cx="934.5" cy="1031.5" r="1"/>
            <circle id="s28" class="cls-2" cx="1205.83" cy="975.5" r="1"/>
            <circle id="s27" class="cls-2" cx="912.5" cy="868.5" r="1"/>
            <circle id="s26" class="cls-2" cx="1148.5" cy="452.5" r="1"/>
            <circle id="s25" class="cls-2" cx="959.5" cy="365.5" r="1"/>
            <circle id="s24" class="cls-2" cx="1149.5" cy="617.5" r="1"/>
            <circle id="s23" class="cls-2" cx="1042.5" cy="627.5" r="1"/>
            <circle id="s22" class="cls-2" cx="827.5" cy="594.5" r="1"/>
            <circle id="s21" class="cls-2" cx="1138.5" cy="257.5" r="1"/>
            <circle id="s20" class="cls-2" cx="1092.5" cy="25.5" r="1"/>
            <circle id="s19" class="cls-2" cx="740.5" cy="453.5" r="1"/>
            <circle id="s18" class="cls-2" cx="185.5" cy="42.5" r="1"/>
            <circle id="s17" class="cls-2" cx="869.5" cy="236.5" r="1"/>
            <circle id="s16" class="cls-2" cx="659.5" cy="670.5" r="1"/>
            <circle id="s15" class="cls-2" cx="509.5" cy="374.5" r="1"/>
            <circle id="s14" class="cls-2" cx="1268.5" cy="709.5" r="1"/>
            <circle id="s13" class="cls-2" cx="1797.5" cy="314.5" r="1"/>
            <circle id="s12" class="cls-2" cx="1822.5" cy="451.5" r="1"/>
            <circle id="s11" class="cls-2" cx="1697.5" cy="628.5" r="1"/>
            <circle id="s10" class="cls-2" cx="1469.5" cy="964.5" r="1"/>
            <circle id="s09" class="cls-2" cx="461.5" cy="216.5" r="1"/>
            <circle id="s08" class="cls-2" cx="335.5" cy="125.5" r="1"/>
            <circle id="s07" class="cls-2" cx="234.5" cy="259.5" r="1"/>
            <circle id="s06" class="cls-2" cx="235.5" cy="150.5" r="1"/>
            <circle id="s05" class="cls-2" cx="336.5" cy="423.5" r="1"/>
            <circle id="s04" class="cls-2" cx="156.5" cy="649.5" r="1"/>
            <circle id="s03" class="cls-2" cx="262.5" cy="887.5" r="1"/>
            <circle id="s02" class="cls-2" cx="97.5" cy="170.5" r="1"/>
            <circle id="s01" class="cls-2" cx="172.5" cy="373.5" r="1"/>
            <circle id="s47-2" data-name="s47" class="cls-2" cx="479.5" cy="775.5" r="1"/>
            <circle id="s45-2" data-name="s45" class="cls-2" cx="610.5" cy="744.5" r="1"/>
            <circle id="s44-2" data-name="s44" class="cls-2" cx="1574.5" cy="581.5" r="1"/>
            <circle id="s43-2" data-name="s43" class="cls-2" cx="1277.5" cy="798.5" r="1"/>
            <circle id="s40-2" data-name="s40" class="cls-2" cx="1716.5" cy="562.5" r="1"/>
            <circle id="s39-2" data-name="s39" class="cls-2" cx="1321.5" cy="492.5" r="1"/>
            <circle id="s38-2" data-name="s38" class="cls-2" cx="1488.5" cy="671.5" r="1"/>
            <circle id="s36-2" data-name="s36" class="cls-2" cx="1666.5" cy="491.5" r="1"/>
            <circle id="s34-2" data-name="s34" class="cls-2" cx="643.5" cy="582.5" r="1"/>
            <circle id="s33-2" data-name="s33" class="cls-2" cx="536.5" cy="525.5" r="1"/>
            <circle id="s32-2" data-name="s32" class="cls-2" cx="562.5" cy="605.5" r="1"/>
            <circle id="s26-2" data-name="s26" class="cls-2" cx="1099.5" cy="863.5" r="1"/>
            <circle id="s25-2" data-name="s25" class="cls-2" cx="910.5" cy="776.5" r="1"/>
            <circle id="s21-2" data-name="s21" class="cls-2" cx="1089.5" cy="668.5" r="1"/>
            <circle id="s20-2" data-name="s20" class="cls-2" cx="1043.5" cy="436.5" r="1"/>
            <circle id="s19-2" data-name="s19" class="cls-2" cx="691.5" cy="864.5" r="1"/>
            <circle id="s18-2" data-name="s18" class="cls-2" cx="136.5" cy="453.5" r="1"/>
            <circle id="s17-2" data-name="s17" class="cls-2" cx="820.5" cy="647.5" r="1"/>
            <circle id="s15-2" data-name="s15" class="cls-2" cx="460.5" cy="785.5" r="1"/>
            <circle id="s13-2" data-name="s13" class="cls-2" cx="1748.5" cy="725.5" r="1"/>
            <circle id="s12-2" data-name="s12" class="cls-2" cx="1773.5" cy="862.5" r="1"/>
            <circle id="s09-2" data-name="s09" class="cls-2" cx="412.5" cy="627.5" r="1"/>
            <circle id="s08-2" data-name="s08" class="cls-2" cx="286.5" cy="536.5" r="1"/>
            <circle id="s07-2" data-name="s07" class="cls-2" cx="185.5" cy="670.5" r="1"/>
            <circle id="s06-2" data-name="s06" class="cls-2" cx="186.5" cy="561.5" r="1"/>
            <circle id="s05-2" data-name="s05" class="cls-2" cx="287.5" cy="834.5" r="1"/>
            <circle id="s02-2" data-name="s02" class="cls-2" cx="48.5" cy="581.5" r="1"/>
            <circle id="s01-2" data-name="s01" class="cls-2" cx="123.5" cy="784.5" r="1"/>
          </g>
        </g>
        <g id="top_info_copy_9" data-name="top_info copy 9">
          <text class="cls-3" transform="translate(1268.5 113)"><tspan class="cls-4">F</tspan><tspan class="cls-5" x="22.13" y="0">r</tspan><tspan x="37.58" y="0">anchise Ru</tspan><tspan class="cls-6" x="252.24" y="0">n</tspan><tspan x="278.69" y="0">time: 476.95HRs</tspan></text>
          <text class="cls-3" transform="translate(187.5 114)"><tspan class="cls-7">T</tspan><tspan class="cls-8" x="21.94" y="0">w</tspan><tspan class="cls-9" x="56.78" y="0">o captains </tspan><tspan class="cls-10" x="271.34" y="0">c</tspan><tspan x="292.56" y="0">ollid</tspan><tspan class="cls-11" x="379.87" y="0">e</tspan><tspan x="403.34" y="0">...</tspan></text>
        </g>
        <g id="tos_logo">
          <g id="tos_logo-2" data-name="tos_logo">
            <path id="S" class="cls-12" d="M136.5,352.81l21.88-7.68-5.82,22.68h13.69L175.38,331l-36.13,11.38,16.69-63.88s2.23-9.5,15.73-9.5h24.16s10.59,1.67,10.5,11.75a40.73,40.73,0,0,1-3.75,17.08l-19.66,5.34,5.16-17.75H173.25l-8.58,33,36.5-12.08L185.5,367.81s-4.25,16.27-21.5,16.27H140.92s-8.42.5-8.42-9.25S136.5,352.81,136.5,352.81Z"/>
            <polygon id="T" class="cls-12" points="200.5 384.09 226 285.33 211.5 285.33 216.17 269 263.33 269 258.75 285.46 244.92 285.46 220.38 384.09 200.5 384.09"/>
            <path id="A" class="cls-12" d="M307.83,269H282.25c-14.5,0-16.92,11-16.92,11L238.71,384.09h20.12l11-48.76,15.67-4.66-13.67,53.42h20.34l24.16-95a57.66,57.66,0,0,0,.75-8.33C317.08,270.17,307.83,269,307.83,269ZM291,312.5l-15.92,4.67,8.25-31.75h15.09Z"/>
            <path id="R" class="cls-12" d="M368.94,269H330.25L300.94,384.09h19.89l10.84-45.59L338,384.09h21.83L350,329.33c17.5-2.08,21.58-15.75,21.58-15.75l7.48-33.89C379.06,268.31,368.94,269,368.94,269Zm-15.69,42.33-15.92,5.84,7.09-31.75h14.5Z"/>
            <polygon id="T-2" data-name="T" class="cls-12" points="398 384.09 423.5 283.59 409 283.59 413.67 266.97 460.83 266.97 456.25 283.72 442.42 283.72 417.88 384.09 398 384.09"/>
            <path id="R-2" data-name="R" class="cls-12" d="M506.4,267H467.71L438.4,384.09h19.89l10.84-46.39,6.33,46.39h21.83l-9.83-55.72c17.5-2.12,21.58-16,21.58-16l7.48-34.49C516.52,266.28,506.4,267,506.4,267Zm-15.69,43.07L474.79,316l7.09-32.31h14.5Z"/>
            <path id="E" class="cls-12" d="M500.69,384.09l26.44-104.21S528.63,267,543,267h28.88l-5.38,16.71H545.63L536.88,316l20.87-6.49v17.25s-25.25,8.38-25.25,8S524,367,524,367l21.5.13-4.25,17Z"/>
            <path id="K" class="cls-12" d="M548.38,384.09,578,267h19.33l-8.16,32.87L610.83,267H632.5l-32.17,44.7,10.5,72.42H589.5L583.83,336l-5.33,6.83S567.17,384,567.67,384.09,548.38,384.09,548.38,384.09Z"/>
          </g>
          <text class="cls-13" transform="translate(522.11 459.06)">Generations</text>
        </g>
        <text class="cls-14" transform="translate(1364.08 393)">1.96 HRs<tspan class="cls-15"><tspan x="95.26" y="86.4">Movie Runtime</tspan></tspan></text>
        <text class="cls-16" transform="translate(173.6 765.76)">A total of<tspan x="0" y="144"> </tspan><tspan class="cls-17" x="20.85" y="144">118 Minutes</tspan></text>
        <text class="cls-18" transform="translate(666.83 381.96)">VII</text>
        <g id="ship_tng">
          <g>
            <path class="cls-19" d="M1744,715.61v7.14l.71,35.48,2,41.59-.45.43s0,1.6.07,2.37.56.61.56.61a4.55,4.55,0,0,1,.94,3.27s-.1.48-.32.55a3.18,3.18,0,0,0-.57.3s0,1.67,0,2.52a2.06,2.06,0,0,0,.84,1.47c.12,1,.61,1,.61,1,.16,4.69-1.06,13.14,8.3,13.29s7.83-13.39,7.83-13.39c.57-.07.64-1.08.64-1.08l.75-1.16s0-2.37,0-2.68-.67-.35-.89-.81c-.56-1.32.76-3,.76-3a2,2,0,0,0,.8-2.62c0-1.08-.44-1-.44-1l1.53-27.08,1.27-56.82c0-8.55-12.78-8.6-12.78-8.6C1743,708.79,1744,715.61,1744,715.61Z"/>
            <path class="cls-19" d="M1646,812.39s.49,0,.61-1a2.06,2.06,0,0,0,.84-1.47c0-.85,0-2.52,0-2.52a3.41,3.41,0,0,0-.58-.3c-.22-.07-.32-.55-.32-.55a4.55,4.55,0,0,1,.94-3.27s.48.15.56-.61.07-2.37.07-2.37l-.45-.43,2-41.59.71-35.48v-7.14s1-6.82-12.13-8.24c0,0-12.78,0-12.78,8.6l1.27,56.82,1.53,27.08s-.46,0-.44,1a6.25,6.25,0,0,0,.13,2,6,6,0,0,0,.67.65s1.32,1.72.76,3c-.22.46-.87.49-.89.81s0,2.68,0,2.68l.75,1.16s.07,1,.65,1.08c0,0-1.55,13.54,7.82,13.39S1645.88,817.08,1646,812.39Z"/>
          </g>
          <g>
            <path class="cls-19" d="M1669.35,773.6c-2.06,9.19-8.17,39.77-5.21,55.8h66.13c3-16-3.16-46.61-5.22-55.8-2.19-9.77,4.53-12.17,8.35-13.59a33.67,33.67,0,0,1,7.14-1.44V722.72c-4.75,0-13.51.3-20.28,1.85-9.77,2.24-11.66,1.89-14.46,1.74-2.58-.15-7.77-.59-8.55-.66h-.1c-.78.07-6,.51-8.55.66-2.8.15-4.69.5-14.46-1.74-6.77-1.55-15.53-1.82-20.28-1.85v35.85A33.54,33.54,0,0,1,1661,760C1664.82,761.43,1671.54,763.83,1669.35,773.6Z"/>
            <path class="cls-19" d="M1763.37,848.78l-1.12,3.76-11.54-3.12-1.67-3.87,0-4.27s-6.45-3-11.68-4.89a26.65,26.65,0,0,1-7.8-4.14h-64.79a26.63,26.63,0,0,1-7.81,4.14c-5.23,1.9-11.68,4.89-11.68,4.89l0,4.27-1.67,3.87-11.53,3.12-1.12-3.76s-43,23.08-43,71,40.06,90.69,109.15,90.73h.1c69.09,0,109.15-42.8,109.15-90.73S1763.37,848.78,1763.37,848.78Z"/>
          </g>
        </g>
      </g>
    </g>
  </g>
</svg>
