<svg xmlns="http://www.w3.org/2000/svg" viewBox="0 0 1920 1080">
  <defs>
    <style>
    @import url("https://use.typekit.net/mvj1dyj.css");

      .cls-1 {
        fill: #212121;
      }

      .cls-17, .cls-2, .cls-7 {
        fill: #fff;
      }

      .cls-3 {
        fill: #dcddde;
      }

      .cls-4, .cls-7 {
        font-size: 48px;
      }

      .cls-4 {
        fill: #a9a9a9;
      }

      .cls-17, .cls-4, .cls-5 {
        font-family: agency-fb, sans-serif;
      }

      .cls-5 {
        font-size: 160px;
      }

      .cls-18, .cls-5 {
        fill: #0093dd;
      }

      .cls-6 {
        font-size: 72px;
      }

      .cls-7 {
        font-family: MyriadPro-Regular, Myriad Pro;
      }

      .cls-8 {
        letter-spacing: -0.03em;
      }

      .cls-9 {
        letter-spacing: 0em;
      }

      .cls-10 {
        letter-spacing: 0em;
      }

      .cls-11 {
        letter-spacing: -0.01em;
      }

      .cls-12 {
        letter-spacing: 0em;
      }

      .cls-13 {
        letter-spacing: -0.01em;
      }

      .cls-14 {
        letter-spacing: 0em;
      }

      .cls-15 {
        letter-spacing: 0.01em;
      }

      .cls-16 {
        letter-spacing: -0.01em;
      }

      .cls-17 {
        font-size: 106.49px;
      }

      .cls-18 {
        font-size: 120px;
      }

      .cls-19 {
        font-size: 80px;
      }

      .cls-20 {
        fill: #efb200;
      }
    </style>
  </defs>
  <title>15_Voy_screen</title>
  <g id="Layer_2" data-name="Layer 2">
    <g id="star_trek_infographic">
      <g id="_15_Voy_screen" data-name="15_Voy_screen">
        <g id="starfield_copy_12" data-name="starfield copy 12">
          <rect id="space" class="cls-1" width="1920" height="1080"/>
          <g id="stars">
            <circle id="s47" class="cls-2" cx="528.5" cy="364.5" r="1"/>
            <circle id="s46" class="cls-2" cx="1695.5" cy="781.5" r="1"/>
            <circle id="s45" class="cls-2" cx="659.5" cy="333.5" r="1"/>
            <circle id="s44" class="cls-2" cx="1623.5" cy="170.5" r="1"/>
            <circle id="s43" class="cls-2" cx="1326.5" cy="387.5" r="1"/>
            <circle id="s42" class="cls-2" cx="1269.5" cy="559.5" r="1"/>
            <circle id="s41" class="cls-2" cx="1731.5" cy="962.5" r="1"/>
            <circle id="s40" class="cls-2" cx="1765.5" cy="151.5" r="1"/>
            <circle id="s39" class="cls-2" cx="1370.5" cy="81.5" r="1"/>
            <circle id="s38" class="cls-2" cx="1537.5" cy="260.5" r="1"/>
            <circle id="s37" class="cls-2" cx="1511.5" cy="540.5" r="1"/>
            <circle id="s36" class="cls-2" cx="1715.5" cy="80.5" r="1"/>
            <circle id="s35" class="cls-2" cx="567.5" cy="974.5" r="1"/>
            <circle id="s34" class="cls-2" cx="692.5" cy="171.5" r="1"/>
            <circle id="s33" class="cls-2" cx="585.5" cy="114.5" r="1"/>
            <circle id="s32" class="cls-2" cx="611.5" cy="194.5" r="1"/>
            <circle id="s31" class="cls-2" cx="448.5" cy="731.5" r="1"/>
            <circle id="s30" class="cls-2" cx="961.5" cy="782.5" r="1"/>
            <circle id="s29" class="cls-2" cx="934.5" cy="1031.5" r="1"/>
            <circle id="s28" class="cls-2" cx="1205.83" cy="975.5" r="1"/>
            <circle id="s27" class="cls-2" cx="912.5" cy="868.5" r="1"/>
            <circle id="s26" class="cls-2" cx="1148.5" cy="452.5" r="1"/>
            <circle id="s25" class="cls-2" cx="959.5" cy="365.5" r="1"/>
            <circle id="s24" class="cls-2" cx="1149.5" cy="617.5" r="1"/>
            <circle id="s23" class="cls-2" cx="1042.5" cy="627.5" r="1"/>
            <circle id="s22" class="cls-2" cx="827.5" cy="594.5" r="1"/>
            <circle id="s21" class="cls-2" cx="1138.5" cy="257.5" r="1"/>
            <circle id="s20" class="cls-2" cx="1092.5" cy="25.5" r="1"/>
            <circle id="s19" class="cls-2" cx="740.5" cy="453.5" r="1"/>
            <circle id="s18" class="cls-2" cx="185.5" cy="42.5" r="1"/>
            <circle id="s17" class="cls-2" cx="869.5" cy="236.5" r="1"/>
            <circle id="s16" class="cls-2" cx="659.5" cy="670.5" r="1"/>
            <circle id="s15" class="cls-2" cx="509.5" cy="374.5" r="1"/>
            <circle id="s14" class="cls-2" cx="1268.5" cy="709.5" r="1"/>
            <circle id="s13" class="cls-2" cx="1797.5" cy="314.5" r="1"/>
            <circle id="s12" class="cls-2" cx="1822.5" cy="451.5" r="1"/>
            <circle id="s11" class="cls-2" cx="1697.5" cy="628.5" r="1"/>
            <circle id="s10" class="cls-2" cx="1469.5" cy="964.5" r="1"/>
            <circle id="s09" class="cls-2" cx="461.5" cy="216.5" r="1"/>
            <circle id="s08" class="cls-2" cx="335.5" cy="125.5" r="1"/>
            <circle id="s07" class="cls-2" cx="234.5" cy="259.5" r="1"/>
            <circle id="s06" class="cls-2" cx="235.5" cy="150.5" r="1"/>
            <circle id="s05" class="cls-2" cx="336.5" cy="423.5" r="1"/>
            <circle id="s04" class="cls-2" cx="156.5" cy="649.5" r="1"/>
            <circle id="s03" class="cls-2" cx="262.5" cy="887.5" r="1"/>
            <circle id="s02" class="cls-2" cx="97.5" cy="170.5" r="1"/>
            <circle id="s01" class="cls-2" cx="172.5" cy="373.5" r="1"/>
            <circle id="s47-2" data-name="s47" class="cls-2" cx="479.5" cy="775.5" r="1"/>
            <circle id="s45-2" data-name="s45" class="cls-2" cx="610.5" cy="744.5" r="1"/>
            <circle id="s44-2" data-name="s44" class="cls-2" cx="1574.5" cy="581.5" r="1"/>
            <circle id="s43-2" data-name="s43" class="cls-2" cx="1277.5" cy="798.5" r="1"/>
            <circle id="s40-2" data-name="s40" class="cls-2" cx="1716.5" cy="562.5" r="1"/>
            <circle id="s39-2" data-name="s39" class="cls-2" cx="1321.5" cy="492.5" r="1"/>
            <circle id="s38-2" data-name="s38" class="cls-2" cx="1488.5" cy="671.5" r="1"/>
            <circle id="s36-2" data-name="s36" class="cls-2" cx="1666.5" cy="491.5" r="1"/>
            <circle id="s34-2" data-name="s34" class="cls-2" cx="643.5" cy="582.5" r="1"/>
            <circle id="s33-2" data-name="s33" class="cls-2" cx="536.5" cy="525.5" r="1"/>
            <circle id="s32-2" data-name="s32" class="cls-2" cx="562.5" cy="605.5" r="1"/>
            <circle id="s26-2" data-name="s26" class="cls-2" cx="1099.5" cy="863.5" r="1"/>
            <circle id="s25-2" data-name="s25" class="cls-2" cx="910.5" cy="776.5" r="1"/>
            <circle id="s21-2" data-name="s21" class="cls-2" cx="1089.5" cy="668.5" r="1"/>
            <circle id="s20-2" data-name="s20" class="cls-2" cx="1043.5" cy="436.5" r="1"/>
            <circle id="s19-2" data-name="s19" class="cls-2" cx="691.5" cy="864.5" r="1"/>
            <circle id="s18-2" data-name="s18" class="cls-2" cx="136.5" cy="453.5" r="1"/>
            <circle id="s17-2" data-name="s17" class="cls-2" cx="820.5" cy="647.5" r="1"/>
            <circle id="s15-2" data-name="s15" class="cls-2" cx="460.5" cy="785.5" r="1"/>
            <circle id="s13-2" data-name="s13" class="cls-2" cx="1748.5" cy="725.5" r="1"/>
            <circle id="s12-2" data-name="s12" class="cls-2" cx="1773.5" cy="862.5" r="1"/>
            <circle id="s09-2" data-name="s09" class="cls-2" cx="412.5" cy="627.5" r="1"/>
            <circle id="s08-2" data-name="s08" class="cls-2" cx="286.5" cy="536.5" r="1"/>
            <circle id="s07-2" data-name="s07" class="cls-2" cx="185.5" cy="670.5" r="1"/>
            <circle id="s06-2" data-name="s06" class="cls-2" cx="186.5" cy="561.5" r="1"/>
            <circle id="s05-2" data-name="s05" class="cls-2" cx="287.5" cy="834.5" r="1"/>
            <circle id="s02-2" data-name="s02" class="cls-2" cx="48.5" cy="581.5" r="1"/>
            <circle id="s01-2" data-name="s01" class="cls-2" cx="123.5" cy="784.5" r="1"/>
          </g>
        </g>
        <g id="ship_voy">
          <path class="cls-3" d="M1647.31,793.49l1.55-17.06h1.24v-4.49l1-1.94V725h-.84V723.3h.46s.08-2.21-.14-7.72-4-6.74-4-6.74a12.42,12.42,0,0,0-8.72.1c-4.65,1.82-3.71,5.19-3.71,5.19h.48l.88,59.2,2,20.22C1642.72,800.55,1647.31,793.49,1647.31,793.49Z"/>
          <path class="cls-3" d="M1716.62,765.52s-.16-1.65,2.84-1.71,7.48,0,7.48,0l13.19,5v-39c-.9-1-2-2.13-2.84-2.87a32.4,32.4,0,0,0-1.14-4.14c-.32-.48-5.61-5.61-5.61-5.61l-1,2.65-2.29-2v-2.41s-3.46-.48-4.4,0l-.24.51s-2.46-1.07-2.89-1.31-1.55-.61-2.51-3.23-2.59-9.16-6.2-12.57-11.8-3.65-14.6-3.81c-2.81.16-11,.4-14.6,3.81s-5.24,10-6.21,12.57-2.08,3-2.51,3.23-2.89,1.31-2.89,1.31l-.24-.51c-.93-.48-4.4,0-4.4,0v2.41l-2.28,2-1-2.65s-5.29,5.13-5.61,5.61a34.15,34.15,0,0,0-1.14,4.14c-.84.74-1.94,1.89-2.83,2.87v39l13.18-5s4.49,0,7.49,0,2.83,1.71,2.83,1.71-.21,43.43-12.83,57.55c-32.09,38.07-26.63,75.4-26.63,75.4,9.3,110.7,59.68,112.2,59.68,112.2s50.37-1.5,59.68-112.2c0,0,5.45-37.33-26.63-75.4C1716.84,809,1716.62,765.52,1716.62,765.52Z"/>
          <path class="cls-3" d="M1755,708.94a12.45,12.45,0,0,0-8.73-.1s-3.83,1.22-4,6.74-.14,7.72-.14,7.72h.46V725h-.84v45l1,1.94v4.49H1744l1.55,17.06s4.6,7.06,9.84.06l2-20.22.88-59.2h.49S1759.68,710.76,1755,708.94Z"/>
        </g>
        <g id="tos_logo">
          <text class="cls-4" transform="translate(748.11 468.06)">Voyager</text>
        </g>
        <text class="cls-5" transform="translate(1239.55 393)">123.26 HRs<tspan class="cls-6"><tspan x="201.44" y="86.4">Series Runtime</tspan></tspan></text>
        <g id="top_info_copy_13" data-name="top_info copy 13">
          <text class="cls-7" transform="translate(1268.5 120)"><tspan class="cls-8">F</tspan><tspan class="cls-9" x="22.13" y="0">r</tspan><tspan x="37.58" y="0">anchise Ru</tspan><tspan class="cls-10" x="252.24" y="0">n</tspan><tspan x="278.69" y="0">time: 729.90HRs</tspan></text>
          <text class="cls-7" transform="translate(187.5 120)">The future is now...</text>
        </g>
        <text class="cls-17" transform="translate(173.6 765.76)">A total of<tspan x="0" y="144"> </tspan><tspan class="cls-18" x="20.85" y="144">172 Episodes</tspan><tspan x="490.13" y="144"> </tspan><tspan class="cls-19" x="510.98" y="144">in</tspan><tspan class="cls-18" x="555.47" y="144" xml:space="preserve"> 7 Seasons</tspan></text>
        <g id="ds9_logo">
          <g id="star">
            <path class="cls-20" d="M139.51,358.17l11.54-18.74h90.6s4.11-10-31.35-17.05c-19.49-3.37-54.66-1.47-54.22-24.76S183,273,190.65,273h65.51l-11.87,17.14H184s-10.33,1.76-.33,6.27,21.87,5.6,29.56,6.7,50.15,8,54,38v17Z"/>
            <path class="cls-20" d="M455.28,309.48l20.81-8.05s10.51-3.37,4.14-12.83-16-15.6-37.47-15.6H402.83l2.6,2.86v66.52L356.82,273h-7.69L299,344.48V289.92h25l12-16.92H260.5l-12.14,17h28.46v65l-2,3.16h41.5l-2.79-2.6,11.87-16.93h52.68l11.35,16.49-2.49,3h44.18l-2.79-3V324.28s51.69-6.44,37.95,33.89h23.3S495.72,312.71,455.28,309.48ZM336.71,322l14.84-20.88,15,20.88Zm115-22.73-23,13.48V289h23C463.56,289,451.69,299.23,451.69,299.23Z"/>
          </g>
          <g id="trek">
            <polygon class="cls-20" points="549.79 273 537.92 289.92 566.44 289.92 566.44 354.87 563.97 358.11 591 358.11 588.47 354.87 588.47 289.88 613.53 289.88 625.18 273 549.79 273"/>
            <path class="cls-20" d="M679,309.52s15-5.31,21-8.09,8.64-7,2.34-14.66c-9.82-13.48-35-13.77-35-13.77H626.66l2.31,3.15V355.2l-2.58,2.91h28.13l-2.46-3.62V324.87c53.92-2.49,37.07,33.24,37.07,33.24h24.33C714.92,308.57,679,309.52,679,309.52Zm-2.71-11.39c-9.3,6.3-24.54,14.65-24.54,14.65V289h24.54S685.62,291.83,676.31,298.13Z"/>
            <path class="cls-20" d="M811.34,273H763.42s-51.72,0-53.92,42.56c0,0,0,42.55,50.92,42.55,0,0,20.58.75,38-5.4l2.71,2.56,5.42-22.42s-61.83,22.35-74.91-12.27h57.26l9.89-17.91h-64.4s9.12-11.54,22.42-11.54H802.1Z"/>
            <path class="cls-20" d="M813.09,273l2.49,2.49V355l-2.19,3.16h27.47l-2.64-3.82v-30s53.78-4.41,37.4,33.86H899.8s5.27-47.67-38.13-49L885.84,273h-27v4l-20.22,30.62V275.93l2.25-2.93Z"/>
          </g>
          <polygon id="underline" class="cls-20" points="139.42 393.74 147.69 381.35 899.32 381.35 891.12 393.74 139.42 393.74"/>
        </g>
      </g>
    </g>
  </g>
</svg>
