<svg xmlns="http://www.w3.org/2000/svg" viewBox="0 0 1920 1080">
  <defs>
    <style>
    @import url("https://use.typekit.net/mvj1dyj.css");

      .cls-1 {
        fill: #212121;
      }

      .cls-11, .cls-2, .cls-6 {
        fill: #fff;
      }

      .cls-3, .cls-6 {
        font-size: 48px;
      }

      .cls-3 {
        fill: #a9a9a9;
      }

      .cls-11, .cls-3, .cls-4 {
        font-family: agency-fb, sans-serif;
      }

      .cls-4 {
        font-size: 160px;
        fill: #f8cf39;
      }

      .cls-5 {
        font-size: 72px;
      }

      .cls-6 {
        font-family: MyriadPro-Regular, Myriad Pro;
      }

      .cls-7 {
        letter-spacing: -0.03em;
      }

      .cls-8 {
        letter-spacing: 0em;
      }

      .cls-9 {
        letter-spacing: 0em;
      }

      .cls-10 {
        letter-spacing: -0.01em;
      }

      .cls-11 {
        font-size: 106.49px;
      }

      .cls-12 {
        fill: #0093dd;
        font-size: 120px;
      }

      .cls-13 {
        font-size: 80px;
      }

      .cls-14 {
        fill: #dcddde;
      }

      .cls-15 {
        font-size: 154px;
        fill: #ddd;
        stroke: #f2f2f2;
        stroke-miterlimit: 10;
        stroke-width: 3px;
        font-family: AgencyFB-Bold, Agency FB;
        font-weight: 700;
      }
    </style>
  </defs>
  <title>17_Ent_screen</title>
  <g id="Layer_2" data-name="Layer 2">
    <g id="star_trek_infographic">
      <g id="_17_Ent_screen" data-name="17_Ent_screen">
        <g id="starfield_copy_14" data-name="starfield copy 14">
          <rect id="space" class="cls-1" width="1920" height="1080"/>
          <g id="stars">
            <circle id="s47" class="cls-2" cx="528.5" cy="364.5" r="1"/>
            <circle id="s46" class="cls-2" cx="1695.5" cy="781.5" r="1"/>
            <circle id="s45" class="cls-2" cx="659.5" cy="333.5" r="1"/>
            <circle id="s44" class="cls-2" cx="1623.5" cy="170.5" r="1"/>
            <circle id="s43" class="cls-2" cx="1326.5" cy="387.5" r="1"/>
            <circle id="s42" class="cls-2" cx="1269.5" cy="559.5" r="1"/>
            <circle id="s41" class="cls-2" cx="1731.5" cy="962.5" r="1"/>
            <circle id="s40" class="cls-2" cx="1765.5" cy="151.5" r="1"/>
            <circle id="s39" class="cls-2" cx="1370.5" cy="81.5" r="1"/>
            <circle id="s38" class="cls-2" cx="1537.5" cy="260.5" r="1"/>
            <circle id="s37" class="cls-2" cx="1511.5" cy="540.5" r="1"/>
            <circle id="s36" class="cls-2" cx="1715.5" cy="80.5" r="1"/>
            <circle id="s35" class="cls-2" cx="567.5" cy="974.5" r="1"/>
            <circle id="s34" class="cls-2" cx="692.5" cy="171.5" r="1"/>
            <circle id="s33" class="cls-2" cx="585.5" cy="114.5" r="1"/>
            <circle id="s32" class="cls-2" cx="611.5" cy="194.5" r="1"/>
            <circle id="s31" class="cls-2" cx="448.5" cy="731.5" r="1"/>
            <circle id="s30" class="cls-2" cx="961.5" cy="782.5" r="1"/>
            <circle id="s29" class="cls-2" cx="934.5" cy="1031.5" r="1"/>
            <circle id="s28" class="cls-2" cx="1205.83" cy="975.5" r="1"/>
            <circle id="s27" class="cls-2" cx="912.5" cy="868.5" r="1"/>
            <circle id="s26" class="cls-2" cx="1148.5" cy="452.5" r="1"/>
            <circle id="s25" class="cls-2" cx="959.5" cy="365.5" r="1"/>
            <circle id="s24" class="cls-2" cx="1149.5" cy="617.5" r="1"/>
            <circle id="s23" class="cls-2" cx="1042.5" cy="627.5" r="1"/>
            <circle id="s22" class="cls-2" cx="827.5" cy="594.5" r="1"/>
            <circle id="s21" class="cls-2" cx="1138.5" cy="257.5" r="1"/>
            <circle id="s20" class="cls-2" cx="1092.5" cy="25.5" r="1"/>
            <circle id="s19" class="cls-2" cx="740.5" cy="453.5" r="1"/>
            <circle id="s18" class="cls-2" cx="185.5" cy="42.5" r="1"/>
            <circle id="s17" class="cls-2" cx="869.5" cy="236.5" r="1"/>
            <circle id="s16" class="cls-2" cx="659.5" cy="670.5" r="1"/>
            <circle id="s15" class="cls-2" cx="509.5" cy="374.5" r="1"/>
            <circle id="s14" class="cls-2" cx="1268.5" cy="709.5" r="1"/>
            <circle id="s13" class="cls-2" cx="1797.5" cy="314.5" r="1"/>
            <circle id="s12" class="cls-2" cx="1822.5" cy="451.5" r="1"/>
            <circle id="s11" class="cls-2" cx="1697.5" cy="628.5" r="1"/>
            <circle id="s10" class="cls-2" cx="1469.5" cy="964.5" r="1"/>
            <circle id="s09" class="cls-2" cx="461.5" cy="216.5" r="1"/>
            <circle id="s08" class="cls-2" cx="335.5" cy="125.5" r="1"/>
            <circle id="s07" class="cls-2" cx="234.5" cy="259.5" r="1"/>
            <circle id="s06" class="cls-2" cx="235.5" cy="150.5" r="1"/>
            <circle id="s05" class="cls-2" cx="336.5" cy="423.5" r="1"/>
            <circle id="s04" class="cls-2" cx="156.5" cy="649.5" r="1"/>
            <circle id="s03" class="cls-2" cx="262.5" cy="887.5" r="1"/>
            <circle id="s02" class="cls-2" cx="97.5" cy="170.5" r="1"/>
            <circle id="s01" class="cls-2" cx="172.5" cy="373.5" r="1"/>
            <circle id="s47-2" data-name="s47" class="cls-2" cx="479.5" cy="775.5" r="1"/>
            <circle id="s45-2" data-name="s45" class="cls-2" cx="610.5" cy="744.5" r="1"/>
            <circle id="s44-2" data-name="s44" class="cls-2" cx="1574.5" cy="581.5" r="1"/>
            <circle id="s43-2" data-name="s43" class="cls-2" cx="1277.5" cy="798.5" r="1"/>
            <circle id="s40-2" data-name="s40" class="cls-2" cx="1716.5" cy="562.5" r="1"/>
            <circle id="s39-2" data-name="s39" class="cls-2" cx="1321.5" cy="492.5" r="1"/>
            <circle id="s38-2" data-name="s38" class="cls-2" cx="1488.5" cy="671.5" r="1"/>
            <circle id="s36-2" data-name="s36" class="cls-2" cx="1666.5" cy="491.5" r="1"/>
            <circle id="s34-2" data-name="s34" class="cls-2" cx="643.5" cy="582.5" r="1"/>
            <circle id="s33-2" data-name="s33" class="cls-2" cx="536.5" cy="525.5" r="1"/>
            <circle id="s32-2" data-name="s32" class="cls-2" cx="562.5" cy="605.5" r="1"/>
            <circle id="s26-2" data-name="s26" class="cls-2" cx="1099.5" cy="863.5" r="1"/>
            <circle id="s25-2" data-name="s25" class="cls-2" cx="910.5" cy="776.5" r="1"/>
            <circle id="s21-2" data-name="s21" class="cls-2" cx="1089.5" cy="668.5" r="1"/>
            <circle id="s20-2" data-name="s20" class="cls-2" cx="1043.5" cy="436.5" r="1"/>
            <circle id="s19-2" data-name="s19" class="cls-2" cx="691.5" cy="864.5" r="1"/>
            <circle id="s18-2" data-name="s18" class="cls-2" cx="136.5" cy="453.5" r="1"/>
            <circle id="s17-2" data-name="s17" class="cls-2" cx="820.5" cy="647.5" r="1"/>
            <circle id="s15-2" data-name="s15" class="cls-2" cx="460.5" cy="785.5" r="1"/>
            <circle id="s13-2" data-name="s13" class="cls-2" cx="1748.5" cy="725.5" r="1"/>
            <circle id="s12-2" data-name="s12" class="cls-2" cx="1773.5" cy="862.5" r="1"/>
            <circle id="s09-2" data-name="s09" class="cls-2" cx="412.5" cy="627.5" r="1"/>
            <circle id="s08-2" data-name="s08" class="cls-2" cx="286.5" cy="536.5" r="1"/>
            <circle id="s07-2" data-name="s07" class="cls-2" cx="185.5" cy="670.5" r="1"/>
            <circle id="s06-2" data-name="s06" class="cls-2" cx="186.5" cy="561.5" r="1"/>
            <circle id="s05-2" data-name="s05" class="cls-2" cx="287.5" cy="834.5" r="1"/>
            <circle id="s02-2" data-name="s02" class="cls-2" cx="48.5" cy="581.5" r="1"/>
            <circle id="s01-2" data-name="s01" class="cls-2" cx="123.5" cy="784.5" r="1"/>
          </g>
        </g>
        <g id="tos_logo">
          <text class="cls-3" transform="translate(596.11 468.06)">Enterprise</text>
        </g>
        <text class="cls-4" transform="translate(1258.14 393)">68.60 HRs<tspan class="cls-5"><tspan x="182.84" y="86.4">Series Runtime</tspan></tspan></text>
        <g id="top_info_copy_15" data-name="top_info copy 15">
          <text class="cls-6" transform="translate(1268.5 120)"><tspan class="cls-7">F</tspan><tspan class="cls-8" x="22.13" y="0">r</tspan><tspan x="37.58" y="0">anchise Ru</tspan><tspan class="cls-9" x="252.24" y="0">n</tspan><tspan x="278.69" y="0">time: 800.43HRs</tspan></text>
          <text class="cls-6" transform="translate(187.5 120)">H<tspan class="cls-10" x="31.3" y="0">o</tspan><tspan x="57.31" y="0">w it all began...</tspan></text>
        </g>
        <text class="cls-11" transform="translate(173.6 765.76)">A total of<tspan x="0" y="144"> </tspan><tspan class="cls-12" x="20.85" y="144">98 Episodes</tspan><tspan x="478" y="144"> </tspan><tspan class="cls-13" x="498.85" y="144">in</tspan><tspan class="cls-12" x="543.34" y="144" xml:space="preserve"> 4 Seasons</tspan></text>
        <g id="ship_ent">
          <path class="cls-14" d="M1770.25,864H1766l-7.25-16.25H1751c-1.25-6.37-12.08-10.33-12.08-10.33V799.5l19.91-8.3V760.37L1740,775.75l-24.12,8.38v2.75l-12.42,5.33-1.58-5.33h-12.34l-1.58,5.33-12.42-5.33v-2.75l-24.12-8.38-18.84-15.38V791.2l19.92,8.3v37.92s-10.83,4-12.08,10.33h-7.75L1625.42,864h-4.25s-15,15.25-13.5,47.25,17.5,65.75,64.75,78v-3.5H1719v3.5c47.25-12.25,63.25-46,64.75-78S1770.25,864,1770.25,864Zm-54.33-35.12-2.89,6.06c-3.09,6-6.56,0-6.56,0l-2.81-2.88h-15.9l-2.81,2.88s-3.47,6-6.56,0l-2.89-6.06V807l10.92,4.5s.91,6.08,9.29,6.08,9.29-6.08,9.29-6.08l10.92-4.5Z"/>
          <path class="cls-14" d="M1761.5,816.58l2.08,4.09c8.25,18.33,12.09,0,12.09,0l1-2.67V796.67h1.58V768.75h-2V710.5a27,27,0,0,0-4-13.5h-6c-6.5,16.5-5.12,61.5-5.12,61.5l-.13.1v37.32h.5Z"/>
          <path class="cls-14" d="M1614.75,818l1,2.67s3.83,18.33,12.08,0l2.09-4.09V795.92h.5V758.6l-.13-.1s1.38-45-5.12-61.5h-6a27,27,0,0,0-4,13.5v58.25h-2v27.92h1.58Z"/>
        </g>
        <text class="cls-15" transform="translate(135.05 391.14)">STAR TREK</text>
      </g>
    </g>
  </g>
</svg>
