<svg xmlns="http://www.w3.org/2000/svg" viewBox="0 0 1920 1080">
  <defs>
    <style>
    @import url("https://use.typekit.net/mvj1dyj.css");

      .cls-1 {
        fill: #212121;
      }

      .cls-15, .cls-2, .cls-3 {
        fill: #fff;
      }

      .cls-11, .cls-3 {
        font-size: 48px;
      }

      .cls-3 {
        font-family: MyriadPro-Regular, Myriad Pro;
      }

      .cls-4 {
        letter-spacing: -0.03em;
      }

      .cls-5 {
        letter-spacing: 0em;
      }

      .cls-6 {
        letter-spacing: 0em;
      }

      .cls-7 {
        letter-spacing: -0.01em;
      }

      .cls-8 {
        letter-spacing: -0.01em;
      }

      .cls-9 {
        letter-spacing: 0em;
      }

      .cls-10, .cls-11 {
        fill: #f8cf39;
      }

      .cls-10 {
        stroke: #febc11;
        stroke-miterlimit: 10;
      }

      .cls-11, .cls-12, .cls-15 {
        font-family: agency-fb, sans-serif;
      }

      .cls-12 {
        font-size: 160px;
      }

      .cls-12, .cls-16 {
        fill: #0093dd;
      }

      .cls-13 {
        font-size: 72px;
      }

      .cls-14 {
        fill: #dcddde;
      }

      .cls-15 {
        font-size: 106.49px;
      }

      .cls-16 {
        font-size: 120px;
      }
    </style>
  </defs>
  <title>4_TMP_screen</title>
  <g id="Layer_2" data-name="Layer 2">
    <g id="star_trek_infographic">
      <g id="_4_TMP_screen" data-name="4_TMP_screen">
        <g id="starfield_copy" data-name="starfield copy">
          <rect id="space" class="cls-1" width="1920" height="1080"/>
          <g id="stars">
            <circle id="s47" class="cls-2" cx="528.5" cy="364.5" r="1"/>
            <circle id="s46" class="cls-2" cx="1695.5" cy="781.5" r="1"/>
            <circle id="s45" class="cls-2" cx="659.5" cy="333.5" r="1"/>
            <circle id="s44" class="cls-2" cx="1623.5" cy="170.5" r="1"/>
            <circle id="s43" class="cls-2" cx="1326.5" cy="387.5" r="1"/>
            <circle id="s42" class="cls-2" cx="1269.5" cy="559.5" r="1"/>
            <circle id="s41" class="cls-2" cx="1731.5" cy="962.5" r="1"/>
            <circle id="s40" class="cls-2" cx="1765.5" cy="151.5" r="1"/>
            <circle id="s39" class="cls-2" cx="1370.5" cy="81.5" r="1"/>
            <circle id="s38" class="cls-2" cx="1537.5" cy="260.5" r="1"/>
            <circle id="s37" class="cls-2" cx="1511.5" cy="540.5" r="1"/>
            <circle id="s36" class="cls-2" cx="1715.5" cy="80.5" r="1"/>
            <circle id="s35" class="cls-2" cx="567.5" cy="974.5" r="1"/>
            <circle id="s34" class="cls-2" cx="692.5" cy="171.5" r="1"/>
            <circle id="s33" class="cls-2" cx="585.5" cy="114.5" r="1"/>
            <circle id="s32" class="cls-2" cx="611.5" cy="194.5" r="1"/>
            <circle id="s31" class="cls-2" cx="448.5" cy="731.5" r="1"/>
            <circle id="s30" class="cls-2" cx="961.5" cy="782.5" r="1"/>
            <circle id="s29" class="cls-2" cx="934.5" cy="1031.5" r="1"/>
            <circle id="s28" class="cls-2" cx="1205.83" cy="975.5" r="1"/>
            <circle id="s27" class="cls-2" cx="912.5" cy="868.5" r="1"/>
            <circle id="s26" class="cls-2" cx="1148.5" cy="452.5" r="1"/>
            <circle id="s25" class="cls-2" cx="959.5" cy="365.5" r="1"/>
            <circle id="s24" class="cls-2" cx="1149.5" cy="617.5" r="1"/>
            <circle id="s23" class="cls-2" cx="1042.5" cy="627.5" r="1"/>
            <circle id="s22" class="cls-2" cx="827.5" cy="594.5" r="1"/>
            <circle id="s21" class="cls-2" cx="1138.5" cy="257.5" r="1"/>
            <circle id="s20" class="cls-2" cx="1092.5" cy="25.5" r="1"/>
            <circle id="s19" class="cls-2" cx="740.5" cy="453.5" r="1"/>
            <circle id="s18" class="cls-2" cx="185.5" cy="42.5" r="1"/>
            <circle id="s17" class="cls-2" cx="869.5" cy="236.5" r="1"/>
            <circle id="s16" class="cls-2" cx="659.5" cy="670.5" r="1"/>
            <circle id="s15" class="cls-2" cx="509.5" cy="374.5" r="1"/>
            <circle id="s14" class="cls-2" cx="1268.5" cy="709.5" r="1"/>
            <circle id="s13" class="cls-2" cx="1797.5" cy="314.5" r="1"/>
            <circle id="s12" class="cls-2" cx="1822.5" cy="451.5" r="1"/>
            <circle id="s11" class="cls-2" cx="1697.5" cy="628.5" r="1"/>
            <circle id="s10" class="cls-2" cx="1469.5" cy="964.5" r="1"/>
            <circle id="s09" class="cls-2" cx="461.5" cy="216.5" r="1"/>
            <circle id="s08" class="cls-2" cx="335.5" cy="125.5" r="1"/>
            <circle id="s07" class="cls-2" cx="234.5" cy="259.5" r="1"/>
            <circle id="s06" class="cls-2" cx="235.5" cy="150.5" r="1"/>
            <circle id="s05" class="cls-2" cx="336.5" cy="423.5" r="1"/>
            <circle id="s04" class="cls-2" cx="156.5" cy="649.5" r="1"/>
            <circle id="s03" class="cls-2" cx="262.5" cy="887.5" r="1"/>
            <circle id="s02" class="cls-2" cx="97.5" cy="170.5" r="1"/>
            <circle id="s01" class="cls-2" cx="172.5" cy="373.5" r="1"/>
            <circle id="s47-2" data-name="s47" class="cls-2" cx="479.5" cy="775.5" r="1"/>
            <circle id="s45-2" data-name="s45" class="cls-2" cx="610.5" cy="744.5" r="1"/>
            <circle id="s44-2" data-name="s44" class="cls-2" cx="1574.5" cy="581.5" r="1"/>
            <circle id="s43-2" data-name="s43" class="cls-2" cx="1277.5" cy="798.5" r="1"/>
            <circle id="s40-2" data-name="s40" class="cls-2" cx="1716.5" cy="562.5" r="1"/>
            <circle id="s39-2" data-name="s39" class="cls-2" cx="1321.5" cy="492.5" r="1"/>
            <circle id="s38-2" data-name="s38" class="cls-2" cx="1488.5" cy="671.5" r="1"/>
            <circle id="s36-2" data-name="s36" class="cls-2" cx="1666.5" cy="491.5" r="1"/>
            <circle id="s34-2" data-name="s34" class="cls-2" cx="643.5" cy="582.5" r="1"/>
            <circle id="s33-2" data-name="s33" class="cls-2" cx="536.5" cy="525.5" r="1"/>
            <circle id="s32-2" data-name="s32" class="cls-2" cx="562.5" cy="605.5" r="1"/>
            <circle id="s26-2" data-name="s26" class="cls-2" cx="1099.5" cy="863.5" r="1"/>
            <circle id="s25-2" data-name="s25" class="cls-2" cx="910.5" cy="776.5" r="1"/>
            <circle id="s21-2" data-name="s21" class="cls-2" cx="1089.5" cy="668.5" r="1"/>
            <circle id="s20-2" data-name="s20" class="cls-2" cx="1043.5" cy="436.5" r="1"/>
            <circle id="s19-2" data-name="s19" class="cls-2" cx="691.5" cy="864.5" r="1"/>
            <circle id="s18-2" data-name="s18" class="cls-2" cx="136.5" cy="453.5" r="1"/>
            <circle id="s17-2" data-name="s17" class="cls-2" cx="820.5" cy="647.5" r="1"/>
            <circle id="s15-2" data-name="s15" class="cls-2" cx="460.5" cy="785.5" r="1"/>
            <circle id="s13-2" data-name="s13" class="cls-2" cx="1748.5" cy="725.5" r="1"/>
            <circle id="s12-2" data-name="s12" class="cls-2" cx="1773.5" cy="862.5" r="1"/>
            <circle id="s09-2" data-name="s09" class="cls-2" cx="412.5" cy="627.5" r="1"/>
            <circle id="s08-2" data-name="s08" class="cls-2" cx="286.5" cy="536.5" r="1"/>
            <circle id="s07-2" data-name="s07" class="cls-2" cx="185.5" cy="670.5" r="1"/>
            <circle id="s06-2" data-name="s06" class="cls-2" cx="186.5" cy="561.5" r="1"/>
            <circle id="s05-2" data-name="s05" class="cls-2" cx="287.5" cy="834.5" r="1"/>
            <circle id="s02-2" data-name="s02" class="cls-2" cx="48.5" cy="581.5" r="1"/>
            <circle id="s01-2" data-name="s01" class="cls-2" cx="123.5" cy="784.5" r="1"/>
          </g>
        </g>
        <g id="top_info_copy_2" data-name="top_info copy 2">
          <text class="cls-3" transform="translate(1268.5 113)"><tspan class="cls-4">F</tspan><tspan class="cls-5" x="22.13" y="0">r</tspan><tspan x="37.58" y="0">anchise Ru</tspan><tspan class="cls-6" x="252.24" y="0">n</tspan><tspan x="278.69" y="0">time: 76.46HRs</tspan></text>
          <text class="cls-3" transform="translate(187.5 114)"><tspan class="cls-7">T</tspan><tspan x="23.52" y="0">he big sc</tspan><tspan class="cls-8" x="200.44" y="0">r</tspan><tspan x="215.66" y="0">een debu</tspan><tspan class="cls-9" x="388.45" y="0">t</tspan><tspan x="405.19" y="0">...</tspan></text>
        </g>
        <g id="tos_logo">
          <g id="tos_logo-2" data-name="tos_logo">
            <path id="S" class="cls-10" d="M139.5,350.81l21.88-7.68-5.82,22.68h13.69L178.38,329l-36.13,11.38,16.69-63.88s2.23-9.5,15.73-9.5h24.16s10.59,1.67,10.5,11.75a40.73,40.73,0,0,1-3.75,17.08l-19.66,5.34,5.16-17.75H176.25l-8.58,33,36.5-12.08L188.5,365.81s-4.25,16.27-21.5,16.27H143.92s-8.42.5-8.42-9.25S139.5,350.81,139.5,350.81Z"/>
            <polygon id="T" class="cls-10" points="203.5 382.09 229 283.33 214.5 283.33 219.17 267 266.33 267 261.75 283.46 247.92 283.46 223.38 382.09 203.5 382.09"/>
            <path id="A" class="cls-10" d="M310.83,267H285.25c-14.5,0-16.92,11-16.92,11L241.71,382.09h20.12l11-48.76,15.67-4.66-13.67,53.42h20.34l24.16-95a57.66,57.66,0,0,0,.75-8.33C320.08,268.17,310.83,267,310.83,267ZM294,310.5l-15.92,4.67,8.25-31.75h15.09Z"/>
            <path id="R" class="cls-10" d="M371.94,267H333.25L303.94,382.09h19.89l10.84-45.59L341,382.09h21.83L353,327.33c17.5-2.08,21.58-15.75,21.58-15.75l7.48-33.89C382.06,266.31,371.94,267,371.94,267Zm-15.69,42.33-15.92,5.84,7.09-31.75h14.5Z"/>
            <polygon id="T-2" data-name="T" class="cls-10" points="401 382.09 426.5 281.59 412 281.59 416.67 264.97 463.83 264.97 459.25 281.72 445.42 281.72 420.88 382.09 401 382.09"/>
            <path id="R-2" data-name="R" class="cls-10" d="M509.4,265H470.71L441.4,382.09h19.89l10.84-46.39,6.33,46.39h21.83l-9.83-55.72c17.5-2.12,21.58-16,21.58-16l7.48-34.49C519.52,264.28,509.4,265,509.4,265Zm-15.69,43.07L477.79,314l7.09-32.31h14.5Z"/>
            <path id="E" class="cls-10" d="M503.69,382.09l26.44-104.21S531.63,265,546,265h28.88l-5.38,16.71H548.63L539.88,314l20.87-6.49v17.25s-25.25,8.38-25.25,8S527,365,527,365l21.5.13-4.25,17Z"/>
            <path id="K" class="cls-10" d="M551.38,382.09,581,265h19.33l-8.16,32.87L613.83,265H635.5l-32.17,44.7,10.5,72.42H592.5L586.83,334l-5.33,6.83S570.17,382,570.67,382.09,551.38,382.09,551.38,382.09Z"/>
          </g>
          <text class="cls-11" transform="translate(519.11 457.06)">The Motion Picture</text>
        </g>
        <text class="cls-12" transform="translate(1407.36 393)">2.2 HRs<tspan class="cls-13"><tspan x="51.98" y="86.4">Movie Runtime</tspan></tspan></text>
        <g id="ship_tos">
          <path id="ship_head" class="cls-14" d="M1713.66,859.13h-28a67.16,67.16,0,1,0,28,0Z"/>
          <g id="ship_body">
            <path class="cls-14" d="M1660.61,769.31a1,1,0,0,1,0-.24l-.05-.08s.15-3.24.3-27.39-6.19-40.36-6.19-40.36c-6.78,9.13-5.3,39.57-5.3,39.57V840.87c6.33,14,10.45,0,10.45,0V801.1h0Z"/>
            <path class="cls-14" d="M1713.57,828.93l22.39-24-.56-30.5-23.68,38.19h0c-2.59-15.79-7-26.21-12-26.21s-9.47,10.41-12.05,26.19L1664,774.51l-.55,30.41V805l22.31,24c-.35,5-.54,10.31-.54,15.77,0,3.23.07,6.4.19,9.48h28.49c.13-3.08.19-6.25.19-9.48,0-5.46-.18-10.75-.53-15.77Z"/>
            <path class="cls-14" d="M1744.64,701.24s-6.33,16.2-6.19,40.36c.14,23,.28,27,.3,27.37a1.28,1.28,0,0,1,.06.34l.68,31.8h0v39.76s4.12,14,10.45,0V740.81S1751.42,710.37,1744.64,701.24Z"/>
          </g>
        </g>
        <text class="cls-15" transform="translate(173.6 765.76)">A total of<tspan x="0" y="144"> </tspan><tspan class="cls-16" x="20.85" y="144">132 Minutes</tspan></text>
      </g>
    </g>
  </g>
</svg>
